# xmcd
#
# Track frame offsets:
#	150
#	12414
#	22195
#	34591
#	55295
#	69639
#	77915
#	85892
#	95730
#	105122
#	115025
#	124669
#	137961
#	151469
#	160432
#	170867
#	185608
#	196835
#
# Disc length: 2806 seconds
#
# Revision: 0
# Processed by: cddbd v1.5.2PL0 Copyright (c) Steve Scherf et al.
# Submitted via: dBpowerAMP V4.0
#
DISCID=f70af412
DTITLE=Various Artist - My First Billy Childish Album
DYEAR=1900
DGENRE=Rock
TTITLE0=Archive From 1959 - The Buff Medways
TTITLE1=Troubled Mind - The Buff Medways
TTITLE2=Fun In The UK - The Pop Rivets
TTITLE3=Ballad Of Hollis Brown - Thee Headcoats
TTITLE4=When You Stop Loving Me - Thee Headcoats
TTITLE5=I Feel Like Giving In - The Delmonas
TTITLE6=Loathsome 'n' Wild - Thee Mighty Caesars
TTITLE7=I'm Hurtin' - Thee Headcoats
TTITLE8=The Day I Beat My father Up - Thee Headcoats
TTITLE9=Rusty Hook - Thee Headcoats
TTITLE10=It Ain't Mine - Thee Headcoats
TTITLE11=Davy Crockett - Thee Headcoatees
TTITLE12=The Man With The Gallows Eyes - The Chatham Singers
TTITLE13=You Piss Me Off - The Buffets
TTITLE14=Get Out Of Here Pretty Girl - Billy Childish
TTITLE15=Sally Sensation - The Buff Medways
TTITLE16=Every Bit Of Me - Thee Headcoats
TTITLE17=I Am The Strange Hero Of Hunger - Billy Childish
EXTD=
EXTT0=
EXTT1=
EXTT2=
EXTT3=
EXTT4=
EXTT5=
EXTT6=
EXTT7=
EXTT8=
EXTT9=
EXTT10=
EXTT11=
EXTT12=
EXTT13=
EXTT14=
EXTT15=
EXTT16=
EXTT17=
PLAYORDER=
